<svg 
 xmlns="http://www.w3.org/2000/svg"
 xmlns:xlink="http://www.w3.org/1999/xlink"
 width="20px" height="17px">
<path fill-rule="evenodd"  fill="rgb(255, 255, 255)"
 d="M19.422,3.145 L19.422,8.954 C19.422,9.136 19.359,9.296 19.235,9.437 C19.109,9.577 18.956,9.658 18.773,9.681 L6.873,11.064 C6.971,11.519 7.021,11.784 7.021,11.859 C7.021,11.980 6.930,12.221 6.748,12.585 L17.234,12.585 C17.431,12.585 17.602,12.657 17.747,12.801 C17.892,12.944 17.964,13.115 17.964,13.312 C17.964,13.508 17.892,13.678 17.747,13.821 C17.602,13.966 17.431,14.037 17.234,14.037 L5.563,14.037 C5.364,14.037 5.193,13.966 5.049,13.821 C4.905,13.678 4.833,13.508 4.833,13.312 C4.833,13.228 4.862,13.109 4.924,12.954 C4.984,12.799 5.045,12.662 5.105,12.546 C5.166,12.428 5.249,12.277 5.351,12.091 C5.453,11.906 5.513,11.795 5.528,11.757 L3.510,2.419 L1.185,2.419 C0.988,2.419 0.815,2.347 0.672,2.204 C0.528,2.059 0.455,1.889 0.455,1.693 C0.455,1.496 0.528,1.326 0.672,1.182 C0.815,1.038 0.988,0.966 1.185,0.966 L4.103,0.966 C4.224,0.966 4.332,0.991 4.428,1.040 C4.523,1.090 4.597,1.148 4.650,1.216 C4.702,1.285 4.753,1.377 4.798,1.494 C4.844,1.612 4.874,1.710 4.889,1.790 C4.905,1.869 4.925,1.980 4.952,2.124 C4.979,2.268 4.995,2.366 5.003,2.419 L18.693,2.419 C18.891,2.419 19.061,2.491 19.206,2.634 C19.351,2.778 19.422,2.949 19.422,3.145 ZM7.318,14.469 C7.606,14.756 7.750,15.096 7.750,15.490 C7.750,15.883 7.606,16.223 7.318,16.511 C7.029,16.798 6.686,16.942 6.291,16.942 C5.896,16.942 5.555,16.798 5.266,16.511 C4.976,16.223 4.833,15.883 4.833,15.490 C4.833,15.096 4.976,14.756 5.266,14.469 C5.555,14.181 5.896,14.037 6.291,14.037 C6.686,14.037 7.029,14.181 7.318,14.469 ZM17.531,14.469 C17.819,14.756 17.964,15.096 17.964,15.490 C17.964,15.883 17.819,16.223 17.531,16.511 C17.242,16.798 16.900,16.942 16.504,16.942 C16.109,16.942 15.768,16.798 15.479,16.511 C15.190,16.223 15.046,15.883 15.046,15.490 C15.046,15.096 15.190,14.756 15.479,14.469 C15.768,14.181 16.109,14.037 16.504,14.037 C16.900,14.037 17.242,14.181 17.531,14.469 Z"/>
</svg>