<svg 
 xmlns="http://www.w3.org/2000/svg"
 xmlns:xlink="http://www.w3.org/1999/xlink"
 width="50px" height="50px">
<path fill-rule="evenodd"  fill="rgb(255, 255, 255)"
 d="M42.677,42.676 C38.153,47.200 31.900,50.000 25.000,50.000 C18.098,50.000 11.848,47.200 7.323,42.676 C2.797,38.153 -0.001,31.903 -0.001,24.999 C-0.001,18.098 2.797,11.848 7.323,7.323 C11.848,2.800 18.098,-0.000 25.000,-0.000 C25.930,-0.000 26.849,0.051 27.751,0.150 L27.751,3.650 C26.852,3.536 25.932,3.477 25.000,3.477 C19.057,3.477 13.674,5.887 9.781,9.781 C5.886,13.676 3.476,19.058 3.476,24.999 C3.476,30.942 5.886,36.324 9.781,40.222 C13.674,44.114 19.057,46.525 25.000,46.525 C30.942,46.525 36.322,44.114 40.218,40.222 C44.113,36.324 46.523,30.942 46.523,24.999 C46.523,24.244 46.484,23.497 46.409,22.760 L49.901,22.760 C49.967,23.498 49.999,24.244 49.999,24.999 C49.999,31.903 47.201,38.153 42.677,42.676 ZM33.649,1.538 C37.073,2.802 40.145,4.793 42.677,7.323 C45.333,9.981 47.394,13.231 48.645,16.861 C40.850,15.623 34.724,9.383 33.649,1.538 Z"/>
</svg>