<svg 
 xmlns="http://www.w3.org/2000/svg"
 xmlns:xlink="http://www.w3.org/1999/xlink"
 width="50px" height="50px">
<path fill-rule="evenodd"  fill="rgb(255, 255, 255)"
 d="M24.999,50.000 C11.192,50.000 -0.001,38.807 -0.001,25.000 C-0.001,11.193 11.192,-0.000 24.999,-0.000 C38.806,-0.000 49.999,11.193 49.999,25.000 C49.999,38.807 38.806,50.000 24.999,50.000 ZM24.999,2.987 C12.861,2.987 2.986,12.862 2.986,25.000 C2.986,37.138 12.861,47.012 24.999,47.012 C37.137,47.012 47.012,37.138 47.012,25.000 C47.012,12.862 37.137,2.987 24.999,2.987 ZM34.523,32.329 L16.660,32.329 C15.674,32.329 14.877,31.522 14.877,30.527 C14.877,29.532 15.674,28.726 16.660,28.726 L34.523,28.726 C35.507,28.726 36.306,29.532 36.306,30.527 C36.306,31.522 35.507,32.329 34.523,32.329 ZM34.523,26.322 L16.660,26.322 C15.674,26.322 14.877,25.516 14.877,24.521 C14.877,23.526 15.674,22.719 16.660,22.719 L34.523,22.719 C35.507,22.719 36.306,23.526 36.306,24.521 C36.306,25.516 35.507,26.322 34.523,26.322 ZM34.523,20.317 L16.660,20.317 C15.674,20.317 14.877,19.509 14.877,18.514 C14.877,17.519 15.674,16.713 16.660,16.713 L34.523,16.713 C35.507,16.713 36.306,17.519 36.306,18.514 C36.306,19.509 35.507,20.317 34.523,20.317 Z"/>
</svg>