<svg 
 xmlns="http://www.w3.org/2000/svg"
 xmlns:xlink="http://www.w3.org/1999/xlink"
 width="40px" height="40px">
<path fill-rule="evenodd"  fill="rgb(149, 157, 86)"
 d="M24.242,19.999 L38.384,34.142 C39.556,35.313 39.556,37.213 38.384,38.384 C37.212,39.556 35.314,39.556 34.142,38.384 L20.000,24.242 L5.857,38.384 C4.686,39.556 2.786,39.556 1.615,38.384 C0.443,37.213 0.443,35.313 1.615,34.142 L15.757,19.999 L1.615,5.857 C0.443,4.686 0.443,2.786 1.615,1.615 C2.786,0.443 4.686,0.443 5.857,1.615 L20.000,15.757 L34.142,1.615 C35.314,0.443 37.212,0.443 38.384,1.615 C39.556,2.786 39.556,4.686 38.384,5.857 L24.242,19.999 Z"/>
</svg>