<svg 
 xmlns="http://www.w3.org/2000/svg"
 xmlns:xlink="http://www.w3.org/1999/xlink"
 width="50px" height="50px">
<path fill-rule="evenodd"  fill="rgb(255, 255, 255)"
 d="M24.999,50.000 C11.192,50.000 -0.001,38.807 -0.001,25.000 C-0.001,11.193 11.192,-0.000 24.999,-0.000 C38.806,-0.000 49.999,11.193 49.999,25.000 C49.999,38.807 38.806,50.000 24.999,50.000 ZM24.999,2.987 C12.861,2.987 2.987,12.862 2.987,25.000 C2.987,37.138 12.861,47.012 24.999,47.012 C37.137,47.012 47.012,37.138 47.012,25.000 C47.012,12.862 37.137,2.987 24.999,2.987 ZM35.619,36.931 C34.444,38.126 32.809,38.809 31.135,38.809 C30.418,38.809 29.710,38.689 29.033,38.448 C20.666,35.473 14.037,28.635 11.303,20.158 C10.480,17.610 11.353,14.807 13.472,13.183 L14.822,12.149 C15.572,11.573 16.470,11.268 17.416,11.268 C19.027,11.268 20.486,12.164 21.224,13.607 L23.510,18.065 C23.726,18.488 23.840,18.963 23.840,19.439 C23.840,20.193 23.559,20.917 23.051,21.473 L22.575,21.993 C22.103,22.510 22.000,23.274 22.320,23.897 C23.099,25.414 24.312,26.631 25.826,27.415 C26.433,27.731 27.216,27.623 27.719,27.159 L28.238,26.682 C29.138,25.850 30.543,25.658 31.631,26.221 L36.070,28.513 C37.507,29.254 38.398,30.720 38.398,32.339 C38.398,33.476 37.961,34.548 37.163,35.361 L35.619,36.931 ZM34.895,30.808 L30.457,28.516 C30.279,28.424 30.060,28.505 29.975,28.582 L29.457,29.061 C28.178,30.240 26.192,30.508 24.646,29.709 C22.656,28.678 21.062,27.076 20.037,25.078 C19.224,23.498 19.485,21.556 20.684,20.249 L21.156,19.728 C21.209,19.672 21.269,19.576 21.269,19.439 C21.269,19.371 21.254,19.305 21.224,19.245 L18.941,14.787 C18.644,14.208 18.060,13.849 17.416,13.849 C17.038,13.849 16.680,13.970 16.382,14.199 L15.030,15.234 C13.776,16.196 13.261,17.854 13.747,19.363 C16.237,27.081 22.273,33.307 29.891,36.016 C31.227,36.492 32.798,36.127 33.789,35.118 L35.335,33.548 C35.654,33.222 35.832,32.793 35.832,32.339 C35.832,31.692 35.471,31.105 34.895,30.808 Z"/>
</svg>