<svg 
 xmlns="http://www.w3.org/2000/svg"
 xmlns:xlink="http://www.w3.org/1999/xlink"
 width="50px" height="50px">
<path fill-rule="evenodd"  fill="rgb(255, 255, 255)"
 d="M24.999,50.000 C11.191,50.000 -0.001,38.807 -0.001,25.000 C-0.001,11.193 11.191,-0.000 24.999,-0.000 C38.807,-0.000 49.999,11.193 49.999,25.000 C49.999,38.807 38.807,50.000 24.999,50.000 ZM24.999,2.987 C12.861,2.987 2.986,12.862 2.986,25.000 C2.986,37.138 12.861,47.012 24.999,47.012 C37.137,47.012 47.012,37.138 47.012,25.000 C47.012,12.862 37.137,2.987 24.999,2.987 ZM37.236,32.721 L36.222,32.721 C35.779,34.607 34.113,35.988 32.128,35.988 C30.142,35.988 28.477,34.607 28.034,32.721 L21.923,32.721 C21.480,34.607 19.815,35.988 17.829,35.988 C15.842,35.988 14.178,34.607 13.735,32.721 L13.762,32.721 C12.236,32.721 10.995,31.463 10.995,29.918 L10.995,16.839 C10.995,15.294 12.236,14.036 13.762,14.036 L33.381,14.036 C33.827,14.036 35.012,13.180 39.887,21.588 L40.003,21.788 L40.003,29.918 C40.003,31.463 38.762,32.721 37.236,32.721 ZM29.601,31.831 C29.657,33.205 30.768,34.281 32.128,34.281 C33.488,34.281 34.598,33.205 34.656,31.831 L34.683,31.144 L33.561,31.144 C33.561,30.358 32.884,29.719 32.051,29.719 C31.219,29.719 30.542,30.358 30.542,31.144 L29.572,31.144 L29.601,31.831 ZM15.302,31.831 C15.360,33.205 16.469,34.281 17.829,34.281 C19.189,34.281 20.298,33.205 20.356,31.831 L20.384,31.144 L19.271,31.144 C19.271,30.358 18.594,29.719 17.762,29.719 C16.929,29.719 16.252,30.358 16.252,31.144 L15.274,31.144 L15.302,31.831 ZM38.324,22.255 C36.438,19.024 34.040,16.264 33.258,15.743 L24.139,15.743 L25.156,19.113 C25.703,21.268 27.589,22.774 29.745,22.774 L38.324,22.774 L38.324,22.255 ZM38.324,23.641 L29.745,23.641 C27.208,23.641 24.991,21.873 24.346,19.332 L23.271,15.743 L13.762,15.743 C13.162,15.743 12.675,16.235 12.675,16.839 L12.675,29.918 C12.675,30.522 13.162,31.013 13.762,31.013 L14.557,31.013 C14.629,29.346 16.032,28.008 17.762,28.008 C19.489,28.008 20.894,29.346 20.965,31.013 L28.847,31.013 C28.919,29.346 30.322,28.008 32.051,28.008 C33.779,28.008 35.183,29.346 35.255,31.013 L37.236,31.013 C37.835,31.013 38.324,30.522 38.324,29.918 L38.324,23.641 Z"/>
</svg>