<svg 
 xmlns="http://www.w3.org/2000/svg"
 xmlns:xlink="http://www.w3.org/1999/xlink"
 width="32px" height="32px">
<path fill-rule="evenodd"  fill="rgb(149, 157, 86)"
 d="M4.929,-0.000 L27.066,-0.000 C29.789,-0.000 31.997,2.207 31.997,4.930 L31.997,27.068 C31.997,29.791 29.789,31.999 27.066,31.999 L4.929,31.999 C2.205,31.999 -0.002,29.791 -0.002,27.068 L-0.002,4.930 C-0.002,2.207 2.205,-0.000 4.929,-0.000 ZM14.502,16.944 L14.502,23.086 L17.827,23.110 L17.814,16.926 L19.867,16.915 L20.439,14.249 L17.812,14.249 L17.812,12.281 C17.812,12.015 17.926,11.541 18.389,11.541 L19.920,11.565 L19.867,8.899 L16.839,8.887 C15.801,8.887 14.505,10.118 14.505,11.376 L14.479,14.234 L12.445,14.270 L12.445,16.934 L14.502,16.944 Z"/>
</svg>