<svg 
 xmlns="http://www.w3.org/2000/svg"
 xmlns:xlink="http://www.w3.org/1999/xlink"
 width="128px" height="25px">
<path fill-rule="evenodd"  fill="rgb(104, 115, 122)"
 d="M127.685,5.493 C127.446,4.271 127.075,3.341 126.564,2.713 C126.058,2.081 125.323,1.629 124.352,1.354 C123.530,1.113 122.144,0.997 120.185,0.997 L120.185,14.494 C120.185,15.392 120.234,16.059 120.338,16.497 C120.437,16.935 120.628,17.297 120.899,17.577 C121.147,17.835 121.426,18.020 121.737,18.132 C122.050,18.249 122.460,18.318 122.962,18.345 L122.962,18.647 L114.512,18.647 L114.512,18.345 C115.023,18.318 115.439,18.249 115.750,18.132 C116.061,18.020 116.342,17.835 116.590,17.577 C116.861,17.297 117.051,16.935 117.150,16.507 C117.253,16.072 117.304,15.401 117.304,14.494 L117.304,0.997 C116.748,0.997 116.152,1.015 115.516,1.051 C114.162,1.118 113.143,1.290 112.481,1.566 C111.811,1.840 111.267,2.310 110.832,2.983 C110.436,3.597 110.133,4.437 109.919,5.493 L109.617,5.471 L109.854,0.590 L127.752,0.590 L127.988,5.471 L127.685,5.493 ZM111.337,18.345 L111.337,18.645 L101.724,18.645 L101.724,18.345 C102.593,18.271 103.197,18.140 103.537,17.947 C104.141,17.605 104.446,17.124 104.446,16.520 C104.446,16.159 104.311,15.671 104.036,15.062 L103.786,14.506 L101.689,9.825 C101.197,9.864 100.731,9.991 100.314,10.299 C99.845,10.655 99.330,11.309 98.766,12.271 C95.723,19.729 93.440,25.013 85.042,25.013 L85.042,24.711 C89.886,24.221 91.614,19.938 93.330,15.990 L99.910,0.590 L100.744,0.590 L107.108,14.494 C107.587,15.544 107.966,16.295 108.250,16.742 C108.530,17.193 108.841,17.532 109.171,17.762 C109.405,17.919 109.674,18.042 109.975,18.127 C110.278,18.209 110.733,18.282 111.337,18.345 ZM99.077,3.989 L96.083,11.052 C96.393,10.702 96.728,10.389 97.093,10.123 C98.430,9.152 99.995,9.415 101.545,9.501 L99.077,3.989 ZM80.576,16.167 C81.796,17.563 83.409,18.259 85.423,18.259 C86.430,18.259 87.333,18.082 88.137,17.734 C88.935,17.387 89.559,16.894 90.001,16.263 C90.512,15.531 90.883,14.543 91.112,13.301 L91.416,13.355 C91.247,14.745 90.868,15.857 90.277,16.674 C89.713,17.461 88.935,18.059 87.943,18.471 C86.949,18.886 85.802,19.095 84.497,19.095 C83.282,19.095 82.117,18.913 81.007,18.552 C79.232,17.968 77.850,16.917 76.852,15.396 C75.854,13.878 75.358,12.064 75.358,9.955 C75.358,8.342 75.645,6.854 76.229,5.493 C76.812,4.131 77.625,3.034 78.663,2.205 C79.467,1.570 80.425,1.063 81.539,0.689 C82.656,0.314 83.774,0.129 84.895,0.129 C85.961,0.129 87.089,0.332 88.282,0.739 L89.366,1.095 C89.577,1.173 89.762,1.214 89.920,1.214 C90.142,1.214 90.322,1.123 90.462,0.938 C90.525,0.848 90.597,0.703 90.689,0.499 L91.005,0.496 L91.162,6.416 L90.860,6.416 C90.765,6.158 90.689,5.964 90.634,5.832 C90.328,4.983 90.074,4.355 89.881,3.941 C89.537,3.195 89.040,2.518 88.385,1.899 C87.892,1.435 87.379,1.091 86.850,0.878 C86.322,0.667 85.725,0.563 85.066,0.563 C84.069,0.563 83.202,0.779 82.470,1.214 C81.829,1.589 81.228,2.134 80.672,2.843 C80.117,3.552 79.661,4.365 79.309,5.272 C78.808,6.549 78.555,8.005 78.555,9.635 C78.555,11.021 78.726,12.266 79.070,13.378 C79.412,14.488 79.918,15.418 80.576,16.167 ZM69.806,0.997 C69.557,1.101 69.309,1.262 69.051,1.494 C68.451,2.056 67.786,2.901 67.055,4.021 L64.035,8.627 C63.673,9.173 63.452,9.575 63.370,9.828 C63.294,10.085 63.254,10.519 63.254,11.124 L63.254,14.366 C63.254,15.310 63.298,15.986 63.393,16.398 C63.483,16.810 63.673,17.162 63.953,17.450 C64.440,17.961 65.137,18.218 66.035,18.218 L66.035,18.520 L57.581,18.520 L57.581,18.218 C58.084,18.191 58.495,18.122 58.811,18.006 C59.131,17.893 59.410,17.707 59.658,17.450 C59.930,17.170 60.115,16.810 60.214,16.379 C60.309,15.946 60.358,15.278 60.358,14.366 L60.373,11.789 C60.373,11.418 60.296,11.007 60.147,10.555 C59.980,10.036 59.636,9.385 59.117,8.600 L55.689,3.452 L55.079,2.527 C54.633,1.854 54.190,1.398 53.757,1.150 C53.536,1.018 53.320,0.923 53.097,0.870 C52.877,0.821 52.565,0.784 52.172,0.765 L52.172,0.464 L60.797,0.464 L60.797,0.765 C60.065,0.810 59.595,0.874 59.393,0.965 C58.901,1.177 58.652,1.561 58.652,2.115 C58.652,2.319 58.706,2.550 58.819,2.802 C58.927,3.060 59.109,3.379 59.351,3.768 L62.938,9.381 L66.008,4.590 L66.351,4.048 C66.681,3.533 66.844,3.033 66.844,2.539 C66.844,1.975 66.662,1.538 66.301,1.230 C65.940,0.920 65.430,0.765 64.774,0.765 L64.774,0.464 L70.862,0.464 L70.862,0.765 C70.406,0.821 70.048,0.896 69.806,0.997 ZM52.172,18.520 L36.389,18.520 L36.389,18.218 C36.891,18.191 37.303,18.122 37.613,18.006 C37.924,17.893 38.205,17.707 38.453,17.450 C38.724,17.170 38.914,16.810 39.014,16.371 C39.117,15.937 39.167,15.270 39.167,14.366 L39.167,4.617 C39.167,3.715 39.117,3.046 39.014,2.613 C38.914,2.175 38.724,1.814 38.453,1.533 C38.214,1.276 37.939,1.090 37.626,0.979 C37.315,0.860 36.900,0.794 36.389,0.765 L36.389,0.464 L50.609,0.464 L50.831,4.830 L50.528,4.839 C50.415,4.098 50.226,3.484 49.959,3.000 C49.693,2.513 49.309,2.089 48.807,1.718 C48.392,1.407 47.904,1.190 47.340,1.063 C46.775,0.933 46.025,0.870 45.090,0.870 L42.062,0.870 L42.062,8.812 L42.857,8.812 C43.660,8.812 44.265,8.759 44.671,8.653 C45.073,8.547 45.406,8.356 45.659,8.085 C45.908,7.828 46.093,7.526 46.211,7.178 C46.328,6.830 46.427,6.315 46.509,5.638 L46.812,5.652 L46.757,12.736 L46.456,12.736 C46.373,12.059 46.260,11.513 46.103,11.097 C45.949,10.681 45.738,10.329 45.462,10.041 C45.200,9.755 44.853,9.548 44.432,9.417 C44.008,9.286 43.470,9.219 42.815,9.219 L42.062,9.219 L42.062,12.248 C42.062,13.458 42.093,14.340 42.156,14.889 C42.215,15.440 42.337,15.902 42.514,16.277 C42.811,16.909 43.267,17.374 43.881,17.671 C44.496,17.965 45.304,18.113 46.311,18.113 C47.366,18.113 48.257,17.979 48.970,17.711 C49.684,17.442 50.266,17.026 50.717,16.461 C51.033,16.082 51.292,15.649 51.489,15.161 C51.689,14.678 51.874,14.036 52.041,13.242 L52.344,13.255 L52.172,18.520 ZM30.167,8.971 C29.782,9.128 29.267,9.281 28.627,9.422 C34.246,11.778 33.395,23.746 41.696,24.583 L41.696,24.886 C33.297,24.886 31.013,19.602 27.972,12.145 C27.407,11.183 26.893,10.529 26.423,10.172 C26.183,9.996 25.930,9.868 25.654,9.796 C25.385,9.720 25.046,9.683 24.653,9.683 L24.002,9.683 L24.002,14.366 C24.002,15.270 24.053,15.937 24.156,16.371 C24.255,16.810 24.445,17.170 24.715,17.450 C24.954,17.699 25.230,17.879 25.546,18.001 C25.858,18.118 26.274,18.191 26.785,18.218 L26.785,18.520 L18.331,18.520 L18.331,18.218 C18.842,18.191 19.252,18.118 19.568,18.001 C19.879,17.879 20.155,17.699 20.395,17.450 C20.674,17.170 20.863,16.810 20.963,16.379 C21.057,15.946 21.108,15.278 21.108,14.366 L21.108,4.617 C21.108,3.704 21.057,3.038 20.963,2.603 C20.863,2.175 20.674,1.814 20.395,1.533 C20.155,1.276 19.879,1.090 19.558,0.979 C19.244,0.860 18.832,0.794 18.331,0.765 L18.331,0.464 L24.706,0.464 C25.773,0.464 26.471,0.469 26.811,0.476 C28.175,0.540 29.250,0.725 30.026,1.032 C30.898,1.384 31.575,1.912 32.054,2.613 C32.536,3.313 32.775,4.129 32.775,5.056 C32.775,6.433 32.257,7.534 31.218,8.360 C30.898,8.608 30.550,8.812 30.167,8.971 ZM29.177,3.194 C28.907,2.580 28.530,2.081 28.056,1.683 C27.687,1.380 27.245,1.173 26.729,1.055 C26.219,0.933 25.493,0.874 24.545,0.874 L24.002,0.874 L24.002,9.394 L24.503,9.394 C25.601,9.394 26.386,9.330 26.857,9.210 C27.330,9.088 27.773,8.830 28.188,8.441 C29.113,7.563 29.579,6.464 29.579,5.160 C29.579,4.464 29.444,3.810 29.177,3.194 ZM13.441,1.872 C12.493,0.915 11.340,0.436 9.991,0.436 C8.938,0.436 8.040,0.649 7.285,1.078 C6.531,1.506 5.828,2.202 5.172,3.163 C3.850,5.127 3.191,7.377 3.191,9.909 C3.191,11.114 3.349,12.258 3.664,13.328 C3.985,14.398 4.445,15.346 5.055,16.167 C6.239,17.752 7.679,18.547 9.380,18.547 C10.049,18.547 10.682,18.407 11.273,18.122 C11.865,17.843 12.346,17.454 12.728,16.957 C13.247,16.271 13.508,15.455 13.508,14.510 C13.508,13.640 13.273,13.007 12.799,12.618 C12.331,12.230 11.548,12.036 10.465,12.036 L10.465,11.733 L18.904,11.733 L18.904,12.036 C18.127,12.108 17.585,12.217 17.270,12.361 C16.958,12.505 16.728,12.755 16.579,13.106 C16.412,13.494 16.326,14.266 16.326,15.422 C16.326,15.743 16.344,16.235 16.380,16.909 L16.407,17.211 C16.068,17.088 15.825,17.026 15.667,17.026 C15.471,17.026 15.224,17.124 14.926,17.329 C14.158,17.855 13.265,18.263 12.252,18.543 C11.238,18.827 10.166,18.967 9.039,18.967 C7.489,18.967 6.088,18.702 4.838,18.173 C3.592,17.644 2.581,16.886 1.804,15.896 C1.221,15.156 0.775,14.276 0.463,13.255 C0.150,12.230 -0.008,11.146 -0.008,10.000 C-0.008,8.423 0.274,6.957 0.837,5.597 C1.402,4.238 2.196,3.118 3.221,2.238 C4.058,1.525 5.024,0.973 6.116,0.584 C7.208,0.197 8.365,0.002 9.580,0.002 C10.289,0.002 10.943,0.070 11.544,0.201 C12.149,0.332 12.790,0.549 13.468,0.848 L14.249,1.204 C14.443,1.285 14.619,1.320 14.778,1.320 C15.130,1.320 15.401,1.037 15.585,0.464 L15.929,0.464 L16.086,6.216 L15.784,6.243 C15.174,4.283 14.393,2.830 13.441,1.872 Z"/>
</svg>