<svg 
 xmlns="http://www.w3.org/2000/svg"
 xmlns:xlink="http://www.w3.org/1999/xlink"
 width="163px" height="32px">
<path fill-rule="evenodd"  fill="rgb(252, 252, 252)"
 d="M162.626,7.026 C162.322,5.462 161.849,4.272 161.199,3.469 C160.555,2.661 159.619,2.083 158.381,1.731 C157.335,1.424 155.568,1.275 153.074,1.275 L153.074,18.536 C153.074,19.684 153.137,20.538 153.268,21.098 C153.395,21.658 153.637,22.121 153.982,22.479 C154.299,22.809 154.654,23.046 155.051,23.189 C155.448,23.338 155.971,23.426 156.611,23.461 L156.611,23.847 L145.850,23.847 L145.850,23.461 C146.500,23.426 147.030,23.338 147.426,23.189 C147.821,23.046 148.178,22.809 148.496,22.479 C148.841,22.121 149.082,21.658 149.209,21.111 C149.339,20.555 149.405,19.695 149.405,18.536 L149.405,1.275 C148.697,1.275 147.937,1.297 147.127,1.344 C145.402,1.430 144.106,1.650 143.262,2.003 C142.410,2.354 141.715,2.954 141.161,3.815 C140.656,4.601 140.270,5.675 140.000,7.026 L139.615,6.997 L139.915,0.754 L162.712,0.754 L163.012,6.997 L162.626,7.026 ZM141.805,23.461 L141.805,23.846 L129.562,23.846 L129.562,23.461 C130.668,23.367 131.438,23.199 131.871,22.952 C132.640,22.515 133.027,21.900 133.027,21.127 C133.027,20.666 132.856,20.041 132.507,19.263 L132.188,18.552 L129.517,12.564 C128.889,12.615 128.297,12.777 127.766,13.170 C127.168,13.626 126.511,14.463 125.793,15.694 C121.918,25.231 119.010,31.988 108.314,31.988 L108.314,31.603 C114.484,30.976 116.685,25.499 118.871,20.449 L127.251,0.754 L128.313,0.754 L136.419,18.536 C137.028,19.880 137.512,20.840 137.873,21.411 C138.230,21.987 138.626,22.421 139.046,22.715 C139.343,22.916 139.687,23.074 140.069,23.183 C140.456,23.288 141.036,23.381 141.805,23.461 ZM126.189,5.101 L122.377,14.134 C122.771,13.687 123.198,13.286 123.662,12.947 C125.366,11.705 127.359,12.041 129.334,12.150 L126.189,5.101 ZM102.627,20.676 C104.179,22.461 106.234,23.351 108.799,23.351 C110.082,23.351 111.233,23.125 112.255,22.680 C113.272,22.236 114.067,21.606 114.631,20.799 C115.281,19.863 115.753,18.598 116.045,17.011 L116.432,17.080 C116.218,18.857 115.734,20.279 114.981,21.324 C114.263,22.330 113.272,23.096 112.009,23.622 C110.743,24.153 109.282,24.420 107.620,24.420 C106.072,24.420 104.589,24.188 103.175,23.726 C100.914,22.980 99.153,21.635 97.883,19.690 C96.612,17.748 95.980,15.428 95.980,12.731 C95.980,10.669 96.346,8.765 97.090,7.026 C97.831,5.283 98.868,3.880 100.189,2.821 C101.213,2.008 102.433,1.360 103.853,0.881 C105.274,0.401 106.698,0.165 108.126,0.165 C109.484,0.165 110.921,0.425 112.440,0.945 L113.821,1.401 C114.089,1.500 114.325,1.552 114.528,1.552 C114.810,1.552 115.039,1.437 115.217,1.199 C115.297,1.084 115.389,0.899 115.505,0.639 L115.908,0.634 L116.109,8.206 L115.724,8.206 C115.604,7.875 115.505,7.627 115.437,7.459 C115.046,6.372 114.723,5.570 114.477,5.040 C114.038,4.086 113.406,3.220 112.573,2.429 C111.945,1.835 111.291,1.395 110.617,1.123 C109.944,0.853 109.185,0.720 108.344,0.720 C107.074,0.720 105.971,0.997 105.038,1.552 C104.222,2.032 103.456,2.729 102.748,3.636 C102.042,4.543 101.460,5.583 101.012,6.743 C100.374,8.376 100.052,10.237 100.052,12.321 C100.052,14.095 100.270,15.688 100.707,17.109 C101.143,18.528 101.788,19.718 102.627,20.676 ZM88.908,1.275 C88.590,1.408 88.276,1.614 87.947,1.910 C87.183,2.630 86.335,3.711 85.406,5.143 L81.558,11.033 C81.097,11.732 80.815,12.246 80.712,12.569 C80.615,12.898 80.563,13.452 80.563,14.226 L80.563,18.373 C80.563,19.580 80.620,20.445 80.741,20.971 C80.856,21.498 81.097,21.948 81.454,22.317 C82.074,22.970 82.961,23.299 84.106,23.299 L84.106,23.686 L73.338,23.686 L73.338,23.299 C73.978,23.264 74.501,23.177 74.904,23.028 C75.313,22.883 75.668,22.645 75.984,22.317 C76.330,21.958 76.566,21.498 76.691,20.947 C76.812,20.393 76.875,19.539 76.875,18.373 L76.894,15.077 C76.894,14.602 76.796,14.076 76.607,13.499 C76.393,12.835 75.956,12.003 75.295,10.999 L70.929,4.415 L70.152,3.232 C69.584,2.372 69.019,1.788 68.468,1.471 C68.186,1.302 67.910,1.181 67.628,1.113 C67.347,1.050 66.950,1.002 66.450,0.978 L66.450,0.593 L77.434,0.593 L77.434,0.978 C76.502,1.036 75.904,1.118 75.646,1.234 C75.019,1.505 74.702,1.996 74.702,2.706 C74.702,2.966 74.771,3.261 74.915,3.583 C75.053,3.914 75.284,4.322 75.593,4.819 L80.161,11.997 L84.070,5.870 L84.509,5.178 C84.929,4.519 85.135,3.878 85.135,3.247 C85.135,2.526 84.904,1.967 84.445,1.573 C83.984,1.176 83.336,0.978 82.499,0.978 L82.499,0.593 L90.254,0.593 L90.254,0.978 C89.672,1.050 89.217,1.146 88.908,1.275 ZM66.450,23.686 L46.347,23.686 L46.347,23.299 C46.986,23.264 47.511,23.177 47.906,23.028 C48.302,22.883 48.659,22.645 48.976,22.317 C49.322,21.958 49.562,21.498 49.690,20.937 C49.821,20.382 49.885,19.528 49.885,18.373 L49.885,5.904 C49.885,4.752 49.821,3.895 49.690,3.341 C49.562,2.781 49.322,2.320 48.976,1.960 C48.670,1.632 48.321,1.394 47.924,1.252 C47.526,1.100 46.998,1.015 46.347,0.978 L46.347,0.593 L64.458,0.593 L64.741,6.177 L64.355,6.188 C64.211,5.241 63.969,4.456 63.630,3.837 C63.291,3.213 62.802,2.671 62.163,2.197 C61.635,1.800 61.013,1.521 60.294,1.360 C59.575,1.193 58.620,1.113 57.431,1.113 L53.572,1.113 L53.572,11.270 L54.584,11.270 C55.608,11.270 56.378,11.202 56.895,11.067 C57.408,10.930 57.832,10.687 58.155,10.340 C58.471,10.011 58.707,9.625 58.856,9.179 C59.006,8.734 59.132,8.076 59.236,7.210 L59.622,7.229 L59.553,16.288 L59.169,16.288 C59.063,15.422 58.919,14.724 58.719,14.192 C58.524,13.660 58.254,13.210 57.902,12.842 C57.569,12.476 57.127,12.211 56.591,12.043 C56.051,11.876 55.366,11.790 54.531,11.790 L53.572,11.790 L53.572,15.663 C53.572,17.211 53.613,18.339 53.692,19.041 C53.768,19.747 53.923,20.337 54.147,20.816 C54.526,21.624 55.107,22.219 55.890,22.599 C56.673,22.975 57.702,23.165 58.984,23.165 C60.329,23.165 61.463,22.993 62.372,22.651 C63.280,22.306 64.023,21.774 64.596,21.052 C64.999,20.567 65.328,20.013 65.580,19.389 C65.834,18.771 66.070,17.951 66.283,16.935 L66.667,16.952 L66.450,23.686 ZM38.422,11.473 C37.932,11.674 37.276,11.870 36.461,12.050 C43.618,15.063 42.534,30.368 53.107,31.439 L53.107,31.826 C42.409,31.826 39.501,25.069 35.626,15.532 C34.907,14.301 34.252,13.465 33.653,13.008 C33.348,12.784 33.026,12.620 32.675,12.528 C32.331,12.431 31.899,12.383 31.399,12.383 L30.571,12.383 L30.571,18.373 C30.571,19.528 30.634,20.382 30.766,20.937 C30.892,21.498 31.134,21.958 31.479,22.317 C31.783,22.636 32.134,22.866 32.538,23.022 C32.934,23.171 33.465,23.264 34.115,23.299 L34.115,23.686 L23.348,23.686 L23.348,23.299 C23.998,23.264 24.520,23.171 24.923,23.022 C25.320,22.866 25.670,22.636 25.975,22.317 C26.332,21.958 26.573,21.498 26.699,20.947 C26.819,20.393 26.884,19.539 26.884,18.373 L26.884,5.904 C26.884,4.738 26.819,3.885 26.699,3.329 C26.573,2.781 26.332,2.320 25.975,1.960 C25.670,1.632 25.320,1.394 24.911,1.252 C24.510,1.100 23.985,1.015 23.348,0.978 L23.348,0.593 L31.467,0.593 C32.825,0.593 33.716,0.599 34.148,0.609 C35.886,0.691 37.255,0.927 38.243,1.320 C39.354,1.770 40.216,2.446 40.824,3.341 C41.440,4.236 41.744,5.281 41.744,6.466 C41.744,8.227 41.084,9.635 39.760,10.692 C39.354,11.009 38.910,11.270 38.422,11.473 ZM37.161,4.085 C36.818,3.300 36.338,2.661 35.734,2.153 C35.264,1.765 34.701,1.500 34.044,1.350 C33.394,1.193 32.470,1.118 31.262,1.118 L30.571,1.118 L30.571,12.015 L31.209,12.015 C32.607,12.015 33.607,11.933 34.206,11.778 C34.810,11.622 35.373,11.293 35.902,10.796 C37.081,9.672 37.674,8.267 37.674,6.599 C37.674,5.709 37.502,4.873 37.161,4.085 ZM17.119,2.395 C15.912,1.170 14.444,0.557 12.726,0.557 C11.384,0.557 10.241,0.829 9.279,1.379 C8.320,1.926 7.423,2.816 6.588,4.045 C4.903,6.557 4.064,9.434 4.064,12.673 C4.064,14.214 4.265,15.677 4.667,17.045 C5.075,18.414 5.662,19.626 6.439,20.676 C7.946,22.703 9.781,23.720 11.947,23.720 C12.799,23.720 13.604,23.541 14.358,23.177 C15.112,22.820 15.725,22.322 16.211,21.687 C16.871,20.809 17.204,19.766 17.204,18.556 C17.204,17.444 16.905,16.635 16.302,16.137 C15.704,15.641 14.709,15.392 13.329,15.392 L13.329,15.006 L24.077,15.006 L24.077,15.392 C23.088,15.484 22.398,15.625 21.995,15.809 C21.599,15.993 21.306,16.312 21.117,16.761 C20.903,17.258 20.794,18.245 20.794,19.723 C20.794,20.134 20.817,20.763 20.862,21.624 L20.898,22.011 C20.466,21.854 20.155,21.774 19.955,21.774 C19.705,21.774 19.390,21.900 19.011,22.161 C18.033,22.835 16.895,23.356 15.606,23.714 C14.313,24.078 12.948,24.257 11.512,24.257 C9.538,24.257 7.754,23.917 6.163,23.241 C4.575,22.565 3.287,21.595 2.298,20.330 C1.556,19.382 0.987,18.257 0.590,16.952 C0.192,15.641 -0.010,14.254 -0.010,12.788 C-0.010,10.772 0.348,8.898 1.067,7.157 C1.786,5.419 2.798,3.988 4.103,2.862 C5.168,1.950 6.399,1.244 7.790,0.747 C9.180,0.251 10.654,0.003 12.201,0.003 C13.105,0.003 13.938,0.090 14.703,0.257 C15.474,0.425 16.291,0.702 17.153,1.084 L18.148,1.539 C18.395,1.644 18.620,1.689 18.822,1.689 C19.270,1.689 19.615,1.326 19.850,0.593 L20.288,0.593 L20.488,7.950 L20.103,7.984 C19.327,5.478 18.333,3.619 17.119,2.395 Z"/>
</svg>