<svg 
 xmlns="http://www.w3.org/2000/svg"
 xmlns:xlink="http://www.w3.org/1999/xlink"
 width="32px" height="32px">
<path fill-rule="evenodd"  fill="rgb(149, 157, 86)"
 d="M27.064,31.999 L4.928,31.999 C2.204,31.999 -0.004,29.791 -0.004,27.068 L-0.004,4.930 C-0.004,2.207 2.204,-0.000 4.928,-0.000 L27.064,-0.000 C29.788,-0.000 31.995,2.207 31.995,4.930 L31.995,27.068 C31.995,29.791 29.788,31.999 27.064,31.999 ZM25.941,12.582 C25.895,11.572 25.735,10.881 25.500,10.276 C25.256,9.652 24.931,9.122 24.405,8.594 C23.876,8.066 23.346,7.741 22.722,7.498 C22.118,7.263 21.426,7.103 20.415,7.056 C19.402,7.010 19.079,7.000 16.498,7.000 C13.918,7.000 13.594,7.010 12.582,7.056 C11.570,7.103 10.880,7.263 10.275,7.498 C9.651,7.741 9.120,8.066 8.592,8.594 C8.064,9.122 7.739,9.652 7.497,10.276 C7.262,10.881 7.102,11.572 7.055,12.582 C7.009,13.596 6.998,13.919 6.998,16.499 C6.998,19.079 7.009,19.403 7.055,20.416 C7.102,21.428 7.262,22.118 7.497,22.722 C7.739,23.347 8.064,23.877 8.592,24.405 C9.120,24.933 9.651,25.258 10.275,25.501 C10.880,25.735 11.570,25.896 12.582,25.942 C13.594,25.989 13.918,25.999 16.498,25.999 C19.079,25.999 19.402,25.989 20.415,25.942 C21.426,25.896 22.118,25.735 22.722,25.501 C23.346,25.258 23.876,24.933 24.405,24.405 C24.931,23.877 25.256,23.347 25.500,22.722 C25.735,22.118 25.895,21.428 25.941,20.416 C25.987,19.403 25.998,19.079 25.998,16.499 C25.998,13.919 25.987,13.596 25.941,12.582 ZM23.904,22.103 C23.732,22.546 23.526,22.862 23.193,23.195 C22.861,23.527 22.545,23.733 22.100,23.906 C21.767,24.035 21.263,24.191 20.337,24.233 C19.335,24.278 19.035,24.288 16.498,24.288 C13.962,24.288 13.662,24.278 12.659,24.233 C11.732,24.191 11.231,24.036 10.896,23.906 C10.452,23.733 10.136,23.527 9.804,23.195 C9.471,22.862 9.264,22.546 9.093,22.103 C8.962,21.768 8.808,21.265 8.766,20.338 C8.719,19.337 8.710,19.036 8.710,16.500 C8.710,13.963 8.719,13.663 8.766,12.661 C8.808,11.735 8.962,11.232 9.093,10.897 C9.264,10.453 9.470,10.137 9.804,9.804 C10.136,9.472 10.452,9.266 10.896,9.094 C11.231,8.964 11.732,8.809 12.659,8.767 C13.662,8.721 13.962,8.711 16.498,8.711 C19.035,8.711 19.335,8.721 20.337,8.767 C21.263,8.809 21.767,8.964 22.100,9.094 C22.545,9.266 22.861,9.472 23.193,9.804 C23.526,10.137 23.732,10.453 23.904,10.897 C24.034,11.232 24.189,11.735 24.231,12.661 C24.277,13.663 24.286,13.963 24.286,16.500 C24.286,19.036 24.277,19.337 24.231,20.338 C24.189,21.265 24.034,21.768 23.904,22.103 ZM16.498,11.621 C13.804,11.621 11.620,13.805 11.620,16.499 C11.620,19.194 13.804,21.378 16.498,21.378 C19.193,21.378 21.376,19.194 21.376,16.499 C21.376,13.805 19.193,11.621 16.498,11.621 ZM21.570,10.289 C20.940,10.289 20.429,10.799 20.429,11.428 C20.429,12.058 20.940,12.568 21.570,12.568 C22.199,12.568 22.709,12.058 22.709,11.428 C22.709,10.799 22.199,10.289 21.570,10.289 ZM16.498,19.666 C14.750,19.666 13.332,18.248 13.332,16.499 C13.332,14.751 14.750,13.333 16.498,13.333 C18.247,13.333 19.664,14.751 19.664,16.499 C19.664,18.248 18.247,19.666 16.498,19.666 Z"/>
</svg>