<svg 
 xmlns="http://www.w3.org/2000/svg"
 xmlns:xlink="http://www.w3.org/1999/xlink"
 width="50px" height="50px">
<path fill-rule="evenodd"  fill="rgb(255, 255, 255)"
 d="M24.999,50.000 C11.191,50.000 -0.001,38.807 -0.001,25.000 C-0.001,11.193 11.191,-0.000 24.999,-0.000 C38.806,-0.000 49.998,11.193 49.998,25.000 C49.998,38.807 38.806,50.000 24.999,50.000 ZM31.429,36.114 C31.030,37.324 29.170,43.360 29.304,46.572 C32.852,45.862 36.098,44.309 38.813,42.114 C38.605,41.975 38.462,41.747 38.468,41.478 C38.513,39.126 35.322,37.770 32.237,36.460 C31.965,36.344 31.696,36.229 31.429,36.114 ZM24.999,47.012 C25.958,47.012 26.896,46.930 27.822,46.810 C27.814,46.771 27.796,46.735 27.794,46.693 C27.627,43.178 29.469,37.351 30.109,35.518 C28.471,34.745 27.096,33.899 26.474,32.729 C25.757,31.382 25.960,30.373 26.260,29.765 C27.133,27.975 29.742,27.489 30.036,27.440 C30.077,27.433 30.119,27.429 30.159,27.429 C32.508,27.429 33.559,22.275 33.559,17.167 C33.559,15.815 33.078,14.341 32.275,13.108 C31.986,13.731 31.006,15.428 28.279,17.060 C25.707,18.601 25.038,19.528 24.870,21.784 C24.834,22.301 24.865,22.734 24.898,23.153 C25.033,24.944 24.944,26.191 21.595,29.141 C20.509,30.098 19.975,31.079 20.009,32.056 C20.062,33.619 21.541,34.795 21.555,34.807 C21.752,34.957 21.862,35.194 21.853,35.441 C21.842,35.689 21.714,35.916 21.507,36.050 C21.386,36.128 18.545,37.945 15.695,37.945 C14.630,37.945 13.699,37.685 12.908,37.189 C12.558,37.739 12.036,38.967 12.036,41.492 C12.036,41.888 11.733,42.201 11.350,42.238 C15.106,45.218 19.843,47.012 24.999,47.012 ZM20.601,27.997 C23.551,25.397 23.491,24.596 23.393,23.268 C23.357,22.815 23.319,22.301 23.366,21.672 C23.571,18.882 24.500,17.555 27.507,15.754 C30.032,14.244 30.800,12.719 30.935,12.411 C30.941,12.178 30.837,10.898 27.754,10.312 C27.364,10.238 26.952,10.200 26.531,10.200 C22.732,10.200 18.532,13.118 18.073,17.998 C17.540,23.699 16.084,24.696 14.544,25.753 C14.365,25.877 14.180,26.003 13.993,26.141 C12.518,27.234 11.586,29.068 11.504,31.044 C11.427,32.872 12.076,34.532 13.288,35.599 C13.909,36.147 14.718,36.425 15.695,36.425 C17.257,36.425 18.889,35.733 19.846,35.244 C19.255,34.562 18.544,33.468 18.499,32.108 C18.449,30.652 19.156,29.268 20.601,27.997 ZM24.999,2.987 C12.861,2.987 2.986,12.862 2.986,25.000 C2.986,31.601 5.921,37.517 10.538,41.555 C10.536,41.533 10.525,41.515 10.525,41.492 C10.525,38.526 11.203,36.970 11.746,36.198 C10.542,34.846 9.911,32.986 9.993,30.980 C10.096,28.548 11.256,26.281 13.098,24.916 C13.299,24.767 13.498,24.630 13.694,24.496 C15.039,23.574 16.101,22.846 16.570,17.856 C17.109,12.112 22.058,8.680 26.531,8.680 C26.997,8.680 27.452,8.730 27.892,8.805 C27.893,8.805 27.894,8.805 27.895,8.805 C31.935,8.805 35.068,13.300 35.068,17.167 C35.068,19.917 34.720,28.856 30.230,28.948 C29.601,29.068 28.054,29.534 27.613,30.437 C27.406,30.864 27.469,31.379 27.805,32.012 C28.432,33.191 30.666,34.141 32.824,35.059 C36.070,36.438 39.718,37.998 39.956,41.104 C44.284,37.082 47.011,31.360 47.011,25.000 C47.011,12.862 37.137,2.987 24.999,2.987 Z"/>
</svg>