<svg 
 xmlns="http://www.w3.org/2000/svg"
 xmlns:xlink="http://www.w3.org/1999/xlink"
 width="263px" height="47px">
<path fill-rule="evenodd"  fill="rgb(255, 241, 211)"
 d="M19.152,46.029 C18.473,46.029 18.070,45.597 17.996,45.508 C15.073,42.480 14.330,38.506 15.786,33.701 C16.008,32.973 16.268,32.245 16.563,31.536 C16.595,31.460 16.643,31.384 16.707,31.321 C17.524,33.184 18.133,34.825 18.426,36.308 C18.059,38.133 18.206,39.810 18.856,41.244 L19.147,41.895 L19.437,41.243 C20.261,39.395 20.266,37.124 19.449,34.489 L19.134,33.453 L19.109,33.533 C18.823,32.762 18.473,31.957 18.044,31.084 L17.864,30.673 C16.879,28.748 15.731,26.945 14.808,25.498 L14.241,24.605 C14.833,23.519 15.378,22.335 15.863,21.163 C15.869,21.199 15.895,21.235 15.916,21.274 C16.223,21.808 16.541,22.335 16.855,22.831 C17.001,23.070 17.413,23.708 17.413,23.708 C19.082,26.321 21.371,29.906 22.519,33.701 C23.968,38.493 23.214,42.480 20.275,45.545 C19.974,45.866 19.596,46.029 19.152,46.029 ZM27.492,39.440 L27.341,39.352 C26.059,38.795 26.121,37.732 26.155,37.156 C26.155,36.912 26.313,36.660 26.543,36.541 C27.781,35.841 28.919,34.964 29.929,33.932 C30.479,34.834 31.182,35.723 31.889,36.563 C30.740,37.574 29.443,38.556 28.035,39.345 L27.862,39.440 L27.492,39.440 ZM10.479,39.440 L10.297,39.325 C4.501,36.074 0.903,29.860 0.903,23.110 C0.903,17.827 3.137,12.778 7.034,9.257 C7.088,9.201 7.157,9.157 7.235,9.125 C7.132,9.565 7.177,10.099 7.246,10.642 C7.350,11.466 7.501,12.317 7.699,13.174 C5.351,15.871 4.046,19.429 4.046,23.110 C4.046,28.686 7.032,33.835 11.841,36.552 C12.059,36.672 12.203,36.907 12.216,37.160 C12.243,37.694 12.305,38.800 10.975,39.377 L10.683,39.440 L10.479,39.440 ZM36.398,39.082 C36.195,39.082 36.000,38.998 35.869,38.850 C35.349,38.313 34.875,37.813 34.419,37.308 L33.519,36.292 L33.105,35.812 C30.224,32.379 27.640,28.531 25.635,24.677 C26.322,23.646 26.961,22.509 27.531,21.385 C27.537,21.420 27.555,21.452 27.571,21.487 L27.856,22.079 C30.127,26.690 33.156,31.166 36.620,35.028 C37.163,35.627 37.640,36.138 38.112,36.618 C38.282,36.792 38.354,37.023 38.316,37.263 C38.169,38.187 37.548,38.833 36.573,39.072 L36.398,39.082 ZM1.772,39.081 C0.761,38.833 0.136,38.205 -0.012,37.265 C-0.045,37.017 0.030,36.780 0.194,36.621 C1.015,35.776 1.860,34.847 2.708,33.854 C3.177,34.822 3.875,35.746 4.633,36.589 C3.838,37.377 3.116,38.159 2.427,38.864 C2.297,39.001 2.107,39.082 1.907,39.082 L1.772,39.081 ZM8.382,31.695 C7.657,30.753 7.055,29.724 6.589,28.628 C8.050,26.536 9.350,24.300 10.446,22.076 C12.573,17.761 13.860,13.523 14.074,10.142 C15.091,9.774 16.209,9.468 17.338,9.314 C17.199,15.425 13.809,24.025 8.382,31.695 ZM35.496,31.483 C34.751,30.540 34.013,29.545 33.302,28.519 C33.974,26.852 34.321,24.950 34.321,23.110 C34.321,19.403 32.999,15.825 30.599,13.037 C30.812,12.264 30.961,11.432 31.062,10.641 C31.123,10.128 31.166,9.620 31.192,9.125 C31.207,9.148 31.233,9.166 31.254,9.185 C35.202,12.726 37.466,17.801 37.466,23.110 C37.466,25.998 36.785,28.892 35.496,31.483 ZM21.839,28.392 C21.312,27.370 20.713,26.320 19.958,25.084 L21.451,22.827 C23.237,19.995 24.600,17.173 25.507,14.445 L25.719,13.786 L25.766,13.603 C26.143,12.341 26.400,11.150 26.532,10.064 C26.820,7.752 26.626,5.845 25.955,4.386 L25.798,4.044 L25.480,4.236 C24.488,3.822 23.345,3.533 22.184,3.352 C22.879,2.229 23.776,1.167 24.921,0.331 C24.993,0.271 25.364,-0.008 25.892,-0.008 C26.263,-0.008 26.610,0.134 26.924,0.414 C29.225,2.515 30.195,6.085 29.652,10.462 C29.371,12.708 28.726,15.080 27.738,17.519 C26.809,19.827 25.585,22.190 24.098,24.550 L23.551,25.403 C23.019,26.238 22.405,27.204 21.784,28.251 L21.839,28.392 ZM10.746,17.871 C10.702,17.816 10.666,17.757 10.635,17.688 C9.605,15.168 8.938,12.736 8.652,10.462 C8.109,6.088 9.079,2.518 11.379,0.416 C11.684,0.139 12.040,-0.008 12.410,-0.008 C12.916,-0.008 13.287,0.259 13.388,0.340 C14.517,1.151 15.413,2.213 16.057,3.495 C14.969,3.546 13.828,3.837 12.738,4.220 L12.716,4.062 L12.355,4.375 C11.691,5.826 11.492,7.787 11.771,10.064 C11.878,10.928 12.059,11.844 12.310,12.798 C11.970,14.338 11.429,16.103 10.746,17.871 ZM22.666,17.688 C22.623,17.625 22.592,17.561 22.567,17.489 C21.585,14.493 21.059,11.631 21.048,9.208 C22.073,9.451 23.203,9.754 24.295,10.205 C24.290,10.975 24.399,11.862 24.567,12.761 L24.408,13.197 L24.363,13.367 L24.161,13.987 C23.766,15.182 23.264,16.430 22.666,17.688 ZM25.199,9.146 C23.370,8.186 21.312,7.745 19.184,7.745 C17.064,7.745 15.017,8.182 13.097,9.042 C13.003,7.646 13.125,6.410 13.451,5.456 C14.439,5.158 15.520,4.899 16.608,4.742 L16.926,4.696 C17.669,4.602 18.429,4.554 19.184,4.554 C19.940,4.554 20.707,4.605 21.463,4.700 L21.704,4.733 C22.786,4.887 23.864,5.142 24.907,5.493 C25.188,6.410 25.310,7.693 25.199,9.146 ZM195.613,33.846 C190.168,33.846 186.917,30.778 186.917,25.639 L186.917,13.730 L190.556,13.730 L190.556,25.517 C190.556,28.748 192.445,30.675 195.613,30.675 C198.748,30.675 200.622,28.748 200.622,25.517 L200.622,13.730 L204.292,13.730 L204.292,25.639 C204.292,30.778 201.049,33.846 195.613,33.846 ZM148.802,33.846 C142.813,33.846 138.465,29.545 138.465,23.620 C138.465,17.689 142.813,13.384 148.802,13.384 C153.105,13.384 155.451,15.827 156.665,17.896 L153.618,19.423 C152.616,17.716 150.687,16.571 148.802,16.571 C144.960,16.571 142.171,19.535 142.171,23.620 C142.171,27.708 144.960,30.675 148.802,30.675 C150.693,30.675 152.625,29.523 153.624,27.807 L156.665,29.312 C155.432,31.391 153.068,33.846 148.802,33.846 ZM249.963,33.481 L249.963,13.730 L253.574,13.730 L253.574,29.509 C253.574,29.968 253.942,30.339 254.395,30.339 L262.036,30.339 L262.036,33.481 L249.963,33.481 ZM231.755,33.481 L231.755,13.730 L235.373,13.730 L235.373,29.509 C235.373,29.968 235.741,30.339 236.192,30.339 L243.834,30.339 L243.834,33.481 L231.755,33.481 ZM211.131,33.481 L211.131,13.730 L224.612,13.730 L224.612,16.865 L215.530,16.865 C215.079,16.865 214.711,17.240 214.711,17.698 L214.711,21.019 C214.711,21.473 215.079,21.846 215.530,21.846 L224.395,21.846 L224.395,24.991 L215.530,24.991 C215.079,24.991 214.711,25.364 214.711,25.822 L214.711,29.509 C214.711,29.968 215.079,30.339 215.530,30.339 L224.612,30.339 L224.612,33.481 L211.131,33.481 ZM176.497,33.481 L176.497,25.701 C176.497,25.244 176.130,24.871 175.677,24.871 L167.189,24.871 C166.739,24.871 166.371,25.244 166.371,25.701 L166.371,33.481 L162.800,33.481 L162.800,13.730 L166.371,13.730 L166.371,20.920 C166.371,21.378 166.739,21.752 167.189,21.752 L175.677,21.752 C176.130,21.752 176.497,21.378 176.497,20.920 L176.497,13.730 L180.109,13.730 L180.109,33.481 L176.497,33.481 ZM129.006,33.481 L129.006,13.730 L132.585,13.730 L132.585,33.481 L129.006,33.481 ZM106.396,33.481 L106.396,13.730 L115.414,13.730 C119.246,13.730 121.821,16.239 121.821,19.972 C121.821,23.937 119.052,25.241 118.203,25.547 C117.982,25.614 117.799,25.802 117.714,26.046 C117.623,26.263 117.641,26.520 117.768,26.750 L117.842,26.866 C118.466,27.955 120.964,30.559 123.455,30.583 L123.455,33.475 C121.690,33.418 119.937,32.880 118.385,31.923 C116.744,30.896 115.369,29.415 114.409,27.641 L113.868,26.647 C113.717,26.377 113.450,26.217 113.157,26.217 L110.787,26.217 C110.343,26.217 109.980,26.591 109.980,27.052 L109.980,33.481 L106.396,33.481 ZM110.787,16.865 C110.351,16.865 109.980,17.247 109.980,17.698 L109.980,22.249 C109.980,22.694 110.351,23.070 110.787,23.070 L114.811,23.070 C116.792,23.070 118.124,21.814 118.124,19.943 C118.124,18.132 116.760,16.865 114.811,16.865 L110.787,16.865 ZM96.845,33.481 L95.778,30.556 C95.663,30.237 95.348,30.013 95.013,30.013 L87.103,30.013 C86.768,30.013 86.468,30.223 86.338,30.549 L85.274,33.481 L81.173,33.481 L88.614,13.730 L93.494,13.730 L100.939,33.481 L96.845,33.481 ZM91.055,18.337 C90.714,18.337 90.399,18.564 90.290,18.892 L87.851,25.759 C87.766,26.043 87.806,26.312 87.961,26.526 C88.102,26.739 88.356,26.871 88.622,26.871 L93.491,26.871 C93.766,26.871 94.004,26.746 94.163,26.520 C94.318,26.295 94.354,25.998 94.255,25.750 L91.822,18.886 C91.703,18.551 91.402,18.337 91.055,18.337 ZM72.107,33.481 L72.107,21.664 C72.107,21.268 71.828,20.927 71.445,20.853 L71.316,20.835 L71.298,20.835 C70.957,20.835 70.658,21.045 70.535,21.368 L65.908,33.481 L64.508,33.481 L59.876,21.368 C59.752,21.049 59.447,20.835 59.113,20.835 C59.098,20.835 59.022,20.835 58.944,20.856 C58.578,20.930 58.299,21.276 58.299,21.664 L58.299,33.481 L54.722,33.481 L54.722,13.730 L60.121,13.730 L64.445,25.116 C64.569,25.431 64.874,25.643 65.203,25.643 C65.538,25.643 65.845,25.431 65.968,25.117 L70.284,13.730 L75.719,13.730 L75.719,33.481 L72.107,33.481 Z"/>
</svg>