<svg 
 xmlns="http://www.w3.org/2000/svg"
 xmlns:xlink="http://www.w3.org/1999/xlink"
 width="160px" height="38px">
<path fill-rule="evenodd"  fill="rgb(104, 115, 122)"
 d="M149.307,37.722 C144.522,37.722 140.250,34.500 139.000,29.936 L138.945,29.737 L140.482,29.737 C141.623,33.581 145.253,36.255 149.307,36.255 C154.384,36.255 158.502,32.191 158.502,27.178 L158.505,24.661 C158.047,25.428 157.493,26.130 156.859,26.755 C154.926,28.663 152.256,29.842 149.307,29.842 C146.359,29.842 143.689,28.663 141.758,26.755 C139.825,24.847 138.629,22.210 138.629,19.300 L138.638,8.466 L140.117,8.466 C140.117,9.270 140.109,19.300 140.114,19.300 C140.114,21.807 141.143,24.076 142.806,25.718 C144.471,27.361 146.769,28.378 149.307,28.378 C151.847,28.378 154.146,27.361 155.808,25.718 C157.472,24.076 158.502,21.806 158.502,19.300 L158.500,8.466 L159.979,8.466 L159.988,27.201 C159.990,33.013 155.197,37.722 149.307,37.722 ZM117.950,25.578 C119.628,27.233 121.946,28.257 124.505,28.257 C126.749,28.257 128.805,27.475 130.407,26.169 C131.689,25.125 132.681,23.746 133.247,22.168 L134.805,22.168 C133.409,26.573 129.308,29.737 124.505,29.737 C121.533,29.737 118.839,28.547 116.890,26.622 C112.644,22.430 112.712,15.713 116.890,11.585 C118.839,9.662 121.533,8.472 124.505,8.472 C127.397,8.472 130.025,9.599 131.961,11.435 C133.903,13.274 135.148,15.827 135.265,18.668 L135.295,19.433 L115.240,19.433 C115.325,21.829 116.345,23.993 117.950,25.578 ZM133.709,17.961 C133.439,15.824 132.423,13.915 130.926,12.496 C129.261,10.919 126.999,9.950 124.505,9.950 C121.946,9.950 119.628,10.975 117.950,12.632 C116.530,14.034 115.568,15.890 115.306,17.961 L133.709,17.961 ZM105.730,15.484 L105.730,29.737 L104.244,29.737 L104.244,8.466 L105.730,8.466 L105.730,11.340 C107.231,9.511 109.594,8.422 111.968,8.422 L112.712,8.422 L112.712,9.890 L111.968,9.890 C108.886,9.890 105.730,12.214 105.730,15.484 ZM89.017,37.722 C86.583,37.722 84.335,36.916 82.540,35.559 C80.698,34.170 79.330,32.204 78.707,29.936 L78.654,29.737 L80.192,29.737 C80.748,31.613 81.904,33.238 83.438,34.395 C84.982,35.562 86.918,36.255 89.017,36.255 C94.095,36.255 98.212,32.191 98.212,27.178 L98.215,24.496 C97.750,25.275 97.188,25.990 96.544,26.625 C94.597,28.548 91.906,29.737 88.934,29.737 C85.965,29.737 83.273,28.548 81.327,26.625 C79.378,24.702 78.172,22.045 78.172,19.112 C78.172,16.178 79.378,13.522 81.327,11.599 C83.273,9.677 85.965,8.487 88.934,8.487 C92.886,8.487 96.339,10.590 98.211,13.723 L98.210,8.466 L99.689,8.466 L99.696,27.178 C99.696,33.000 94.915,37.722 89.017,37.722 ZM88.934,9.964 C86.377,9.964 84.059,10.989 82.383,12.644 C80.706,14.300 79.668,16.586 79.668,19.112 C79.668,21.638 80.706,23.925 82.383,25.581 C84.059,27.235 86.377,28.260 88.934,28.260 C91.493,28.260 93.810,27.235 95.487,25.581 C97.163,23.925 98.201,21.638 98.201,19.112 C98.201,14.060 94.052,9.964 88.934,9.964 ZM57.757,25.578 C59.433,27.235 61.753,28.260 64.314,28.260 C66.558,28.260 68.612,27.475 70.213,26.169 C71.496,25.126 72.488,23.746 73.055,22.170 L74.611,22.170 C73.218,26.574 69.115,29.737 64.314,29.737 C61.338,29.737 58.647,28.548 56.698,26.624 C52.451,22.430 52.517,15.713 56.698,11.588 C58.647,9.662 61.338,8.472 64.314,8.472 C67.204,8.472 69.832,9.599 71.768,11.435 C73.709,13.274 74.955,15.828 75.072,18.669 L75.104,19.435 L55.046,19.435 C55.133,21.832 56.151,23.994 57.757,25.578 ZM73.516,17.962 C73.247,15.826 72.230,13.916 70.732,12.496 C69.069,10.920 66.805,9.951 64.314,9.951 C61.753,9.951 59.433,10.975 57.757,12.632 C56.335,14.037 55.373,15.891 55.112,17.962 L73.516,17.962 ZM43.906,29.737 L42.863,29.737 L34.793,8.466 L36.374,8.466 L43.382,26.946 L50.393,8.466 L51.974,8.466 L51.966,8.485 L43.906,29.737 ZM30.321,8.466 L31.805,8.466 L31.805,29.737 L30.321,29.737 L30.321,8.466 ZM24.607,0.702 L26.090,0.702 L26.090,29.737 L24.607,29.737 L24.607,0.702 ZM10.781,29.737 C7.804,29.737 5.107,28.545 3.153,26.618 C1.202,24.690 -0.005,22.028 -0.005,19.087 C-0.005,16.147 1.202,13.484 3.153,11.557 C5.107,9.629 7.804,8.437 10.781,8.437 C11.183,8.437 11.579,8.459 11.970,8.501 L11.970,9.992 C11.581,9.944 11.183,9.917 10.781,9.917 C8.218,9.917 5.896,10.944 4.214,12.604 C2.535,14.262 1.494,16.556 1.494,19.087 C1.494,21.619 2.535,23.913 4.214,25.570 C5.896,27.231 8.218,28.257 10.781,28.257 C13.347,28.257 15.668,27.231 17.350,25.570 C19.031,23.913 20.070,21.619 20.070,19.087 C20.070,18.766 20.053,18.447 20.021,18.133 L21.528,18.133 C21.555,18.448 21.570,18.766 21.570,19.087 C21.570,22.028 20.363,24.690 18.410,26.618 C16.457,28.545 13.761,29.737 10.781,29.737 ZM14.514,9.092 C15.993,9.631 17.318,10.478 18.410,11.557 C19.556,12.688 20.447,14.074 20.985,15.621 C17.621,15.092 14.978,12.434 14.514,9.092 Z"/>
</svg>