<svg 
 xmlns="http://www.w3.org/2000/svg"
 xmlns:xlink="http://www.w3.org/1999/xlink"
 width="50px" height="50px">
<path fill-rule="evenodd"  fill="rgb(255, 255, 255)"
 d="M24.999,50.000 C11.192,50.000 -0.001,38.807 -0.001,25.000 C-0.001,11.193 11.192,-0.000 24.999,-0.000 C38.806,-0.000 49.999,11.193 49.999,25.000 C49.999,38.807 38.806,50.000 24.999,50.000 ZM24.999,2.987 C12.861,2.987 2.986,12.862 2.986,25.000 C2.986,37.138 12.861,47.012 24.999,47.012 C37.137,47.012 47.012,37.138 47.012,25.000 C47.012,12.862 37.137,2.987 24.999,2.987 ZM34.238,35.994 L15.759,35.994 C13.687,35.994 12.002,34.337 12.002,32.301 L12.002,21.528 C12.002,19.491 13.687,17.834 15.759,17.834 L20.460,17.834 C20.749,15.678 22.604,14.007 24.873,14.007 C27.143,14.007 28.998,15.678 29.287,17.834 L34.238,17.834 C36.310,17.834 37.996,19.491 37.996,21.528 L37.996,32.301 C37.996,34.337 36.310,35.994 34.238,35.994 ZM24.873,15.109 C23.135,15.109 21.723,16.306 21.554,17.834 L28.194,17.834 C28.025,16.306 26.612,15.109 24.873,15.109 ZM36.047,21.528 C36.047,20.547 35.237,19.748 34.238,19.748 L15.759,19.748 C14.763,19.748 13.950,20.547 13.950,21.528 L13.950,28.863 L36.047,28.863 L36.047,21.528 ZM36.047,29.688 L13.950,29.688 L13.950,32.301 C13.950,33.281 14.763,34.079 15.759,34.079 L34.238,34.079 C35.237,34.079 36.047,33.281 36.047,32.301 L36.047,29.688 ZM24.995,25.007 C25.457,25.007 25.833,25.315 25.833,25.695 L25.833,26.803 C25.833,27.183 25.457,27.492 24.995,27.492 C24.534,27.492 24.157,27.183 24.157,26.803 L24.157,25.695 C24.157,25.315 24.534,25.007 24.995,25.007 Z"/>
</svg>