<svg 
 xmlns="http://www.w3.org/2000/svg"
 xmlns:xlink="http://www.w3.org/1999/xlink"
 width="18px" height="18px">
<path fill-rule="evenodd"  fill="rgb(149, 157, 86)"
 d="M11.776,10.287 C11.776,10.278 11.776,10.278 11.776,10.278 C12.546,9.208 12.995,7.898 12.995,6.498 C12.995,2.908 10.085,-0.003 6.494,-0.003 C2.905,-0.003 -0.004,2.908 -0.004,6.498 C-0.004,10.087 2.905,12.998 6.494,12.998 C7.895,12.998 9.204,12.548 10.276,11.778 L10.285,11.778 L15.996,17.488 L17.485,15.998 L11.776,10.287 ZM6.494,10.998 C4.005,10.998 1.996,8.988 1.996,6.498 C1.996,4.008 4.005,1.998 6.494,1.998 C8.985,1.998 10.996,4.008 10.996,6.498 C10.996,8.988 8.985,10.998 6.494,10.998 Z"/>
</svg>