<svg 
 xmlns="http://www.w3.org/2000/svg"
 xmlns:xlink="http://www.w3.org/1999/xlink"
 width="32px" height="32px">
<path fill-rule="evenodd"  fill="rgb(149, 157, 86)"
 d="M4.929,-0.000 L27.065,-0.000 C29.789,-0.000 31.996,2.207 31.996,4.930 L31.996,27.068 C31.996,29.791 29.789,31.999 27.065,31.999 L4.929,31.999 C2.205,31.999 -0.003,29.791 -0.003,27.068 L-0.003,4.930 C-0.003,2.207 2.205,-0.000 4.929,-0.000 ZM15.820,20.313 L16.777,20.313 C16.777,20.313 17.067,20.282 17.213,20.129 C17.350,19.988 17.345,19.723 17.345,19.723 C17.345,19.723 17.327,18.486 17.923,18.303 C18.511,18.124 19.265,19.500 20.063,20.030 C20.668,20.430 21.129,20.342 21.129,20.342 L23.266,20.313 C23.266,20.313 24.383,20.246 23.854,19.398 C23.810,19.329 23.546,18.772 22.264,17.625 C20.923,16.427 21.104,16.621 22.717,14.546 C23.702,13.282 24.094,12.511 23.972,12.180 C23.855,11.865 23.131,11.949 23.131,11.949 L20.725,11.964 C20.725,11.964 20.545,11.939 20.414,12.016 C20.284,12.091 20.200,12.265 20.200,12.265 C20.200,12.265 19.819,13.242 19.312,14.074 C18.240,15.829 17.813,15.922 17.635,15.813 C17.229,15.559 17.330,14.793 17.330,14.247 C17.330,12.548 17.598,11.839 16.810,11.655 C16.547,11.594 16.356,11.555 15.686,11.548 C14.828,11.540 14.100,11.550 13.689,11.744 C13.415,11.874 13.204,12.162 13.332,12.179 C13.491,12.200 13.852,12.273 14.043,12.523 C14.291,12.846 14.281,13.573 14.281,13.573 C14.281,13.573 14.424,15.574 13.950,15.823 C13.626,15.993 13.180,15.645 12.226,14.053 C11.735,13.238 11.365,12.337 11.365,12.337 C11.365,12.337 11.293,12.168 11.168,12.078 C11.013,11.969 10.798,11.935 10.798,11.935 L8.510,11.949 C8.510,11.949 8.167,11.958 8.040,12.102 C7.929,12.231 8.032,12.495 8.032,12.495 C8.032,12.495 9.821,16.534 11.851,18.569 C13.709,20.435 15.820,20.313 15.820,20.313 Z"/>
</svg>